<?xml version="1.0" standalone="no"?>
<!DOCTYPE svg PUBLIC "-//W3C//DTD SVG 20010904//EN"
 "http://www.w3.org/TR/2001/REC-SVG-20010904/DTD/svg10.dtd">
<svg version="1.0" xmlns="http://www.w3.org/2000/svg"
 width="500.000000pt" height="500.000000pt" viewBox="0 0 500.000000 500.000000"
 preserveAspectRatio="xMidYMid meet">
<metadata>
Created by potrace 1.14, written by Peter Selinger 2001-2017
</metadata>
<g transform="translate(0.000000,500.000000) scale(0.100000,-0.100000)"
fill="#000000" stroke="none">
<path d="M2223 4520 c-70 -34 -112 -74 -155 -149 -17 -31 -39 -67 -49 -81 -9
-14 -123 -205 -253 -424 l-237 -399 66 -109 c36 -60 65 -114 65 -119 0 -5 5
-9 10 -9 6 0 10 -5 10 -10 0 -6 12 -29 27 -53 36 -55 43 -67 72 -119 13 -24
36 -62 52 -86 16 -24 29 -45 29 -47 0 -3 268 -452 302 -505 47 -74 283 -477
286 -487 2 -7 8 -13 13 -13 5 0 9 -4 9 -9 0 -8 373 -639 429 -726 11 -16 70
-115 132 -220 62 -104 142 -239 178 -300 l67 -110 569 -1 c353 0 583 4 605 10
132 38 224 164 223 304 -1 63 -24 124 -86 227 -14 22 -76 128 -140 235 -64
107 -132 222 -152 255 -89 147 -348 582 -356 600 -5 11 -17 32 -27 47 -18 29
-273 455 -401 671 -42 70 -84 140 -93 155 -10 15 -21 34 -25 42 -4 8 -79 137
-168 285 -89 149 -176 295 -194 325 -17 30 -36 62 -41 70 -6 8 -98 162 -205
343 -107 180 -207 339 -222 353 -59 52 -123 77 -205 80 -67 2 -85 -2 -135 -26z"/>
<path d="M1142 2559 c-99 -13 -208 -85 -253 -168 -10 -20 -29 -53 -41 -73
-328 -542 -417 -710 -436 -823 -15 -88 -6 -277 16 -358 85 -301 312 -512 632
-583 19 -4 371 -8 782 -9 l747 -1 -18 31 c-10 16 -44 72 -75 123 -31 51 -56
97 -56 102 0 4 -3 10 -7 12 -5 2 -15 15 -23 30 -8 16 -37 65 -65 110 -27 46
-181 304 -342 573 -161 270 -297 495 -303 502 -5 7 -10 14 -10 17 0 2 -40 71
-90 153 -49 81 -96 162 -105 179 -19 37 -80 103 -120 131 -30 20 -108 48 -155
55 -14 2 -49 1 -78 -3z"/>
</g>
</svg>
