<?xml version="1.0" standalone="no"?>
<!DOCTYPE svg PUBLIC "-//W3C//DTD SVG 20010904//EN"
 "http://www.w3.org/TR/2001/REC-SVG-20010904/DTD/svg10.dtd">
<svg version="1.0" xmlns="http://www.w3.org/2000/svg"
 width="2230.000000pt" height="2230.000000pt" viewBox="0 0 2230.000000 2230.000000"
 preserveAspectRatio="xMidYMid meet">
<metadata>
Created by potrace 1.14, written by Peter Selinger 2001-2017
</metadata>
<g transform="translate(0.000000,2230.000000) scale(0.100000,-0.100000)"
fill="#000000" stroke="none">
<path d="M10645 15191 c-170 -28 -333 -144 -432 -306 -23 -38 -77 -130 -88
-150 -6 -11 -52 -87 -101 -170 -50 -82 -112 -186 -138 -230 -26 -44 -51 -87
-56 -95 -34 -55 -90 -151 -90 -155 0 -2 -13 -24 -30 -48 -16 -25 -30 -47 -30
-50 0 -4 -13 -25 -29 -49 -15 -24 -43 -70 -61 -103 -18 -33 -41 -71 -50 -85
-16 -23 -128 -212 -209 -350 -17 -30 -36 -62 -41 -70 -5 -8 -52 -86 -104 -174
-86 -145 -93 -161 -83 -185 6 -14 17 -33 24 -42 7 -8 13 -18 13 -21 0 -5 196
-335 230 -388 5 -8 21 -35 35 -60 27 -47 30 -53 114 -188 28 -46 51 -85 51
-86 0 -2 56 -96 125 -210 69 -114 125 -209 125 -211 0 -2 12 -21 26 -42 14
-21 30 -47 35 -58 6 -11 15 -29 22 -40 76 -126 209 -347 223 -372 11 -17 39
-64 63 -105 25 -40 51 -84 58 -98 8 -14 24 -41 36 -60 12 -20 37 -60 55 -90
18 -30 37 -62 42 -70 28 -45 177 -297 183 -310 4 -8 17 -31 30 -51 31 -49 98
-160 111 -184 9 -16 66 -110 106 -175 5 -8 41 -69 80 -135 39 -66 75 -127 80
-135 49 -79 96 -157 100 -165 8 -16 56 -97 190 -320 69 -115 129 -217 133
-225 4 -8 17 -31 30 -50 21 -33 80 -130 102 -168 6 -10 33 -55 60 -100 60
-100 61 -101 105 -177 19 -33 40 -67 45 -77 68 -113 124 -208 144 -242 13 -22
37 -60 52 -84 16 -24 29 -45 29 -47 0 -3 118 -205 150 -255 12 -19 202 -335
215 -358 9 -16 69 -117 90 -154 6 -10 37 -61 70 -115 33 -53 65 -106 70 -118
6 -11 28 -48 49 -83 l39 -62 1163 0 1164 0 77 26 c98 33 124 46 195 100 196
151 290 414 229 639 -31 113 -33 118 -64 170 -32 56 -30 53 -89 150 -24 39
-47 78 -53 87 -9 15 -58 99 -120 208 -12 19 -33 54 -48 77 -15 24 -27 45 -27
47 0 3 -12 22 -26 43 -14 21 -30 47 -35 58 -5 11 -18 35 -29 52 -16 26 -95
160 -150 253 -5 8 -37 62 -73 120 -35 58 -78 130 -96 160 -17 30 -36 62 -41
70 -29 46 -150 252 -150 255 0 2 -13 23 -29 47 -15 24 -43 70 -61 103 -18 33
-77 132 -130 220 -53 88 -110 182 -126 209 -16 28 -39 66 -51 85 -13 20 -26
43 -30 51 -4 8 -31 55 -60 103 -29 48 -53 90 -53 92 0 2 -13 23 -29 47 -15 24
-43 70 -61 103 -18 33 -39 67 -46 76 -8 8 -14 18 -14 22 0 4 -143 244 -251
422 -11 17 -22 37 -26 45 -4 8 -31 55 -60 103 -29 48 -53 90 -53 92 0 2 -12
21 -26 42 -14 21 -44 70 -65 108 -22 39 -44 77 -49 85 -16 26 -243 404 -254
425 -6 11 -24 39 -39 62 -15 24 -27 44 -27 47 0 3 -51 92 -90 156 -5 8 -28 46
-51 84 -23 39 -47 79 -53 90 -12 21 -50 85 -74 121 -6 11 -15 27 -19 35 -4 8
-49 84 -100 169 -51 85 -93 155 -93 157 0 2 -13 23 -30 47 -16 25 -30 48 -30
52 0 3 -13 26 -30 50 -16 24 -30 46 -30 49 0 3 -31 57 -70 121 -38 64 -70 118
-70 120 0 2 -12 21 -26 42 -14 21 -30 47 -35 58 -5 11 -19 36 -32 56 -12 19
-42 69 -66 110 -24 41 -75 125 -112 187 -38 61 -69 115 -69 118 0 3 -13 25
-30 49 -16 24 -30 46 -30 49 0 3 -31 57 -70 121 -38 64 -70 118 -70 120 0 2
-12 21 -26 42 -14 21 -30 47 -35 58 -5 11 -19 36 -32 56 -12 19 -42 69 -66
110 -230 387 -261 431 -355 503 -51 39 -92 60 -184 96 -61 23 -224 34 -307 21z"/>
<path d="M8268 11140 c-135 -24 -281 -104 -379 -205 -31 -32 -99 -132 -170
-251 -66 -108 -119 -199 -119 -201 0 -3 -13 -25 -30 -50 -16 -24 -30 -46 -30
-48 0 -4 -189 -323 -210 -355 -6 -8 -13 -22 -17 -30 -3 -8 -18 -33 -33 -55
-15 -22 -38 -60 -51 -84 -13 -24 -29 -51 -34 -60 -182 -293 -283 -487 -324
-621 -71 -235 -76 -269 -75 -510 1 -180 5 -231 22 -313 12 -54 24 -103 27
-108 4 -5 12 -33 20 -63 33 -125 110 -284 214 -441 79 -119 265 -311 389 -400
141 -102 330 -197 462 -234 25 -7 59 -16 75 -21 17 -5 77 -18 135 -29 104 -21
121 -21 1602 -19 l1498 3 -65 110 c-36 61 -70 117 -75 125 -5 8 -22 37 -37 64
-30 51 -32 56 -76 123 -15 24 -27 45 -27 49 0 3 -15 29 -34 57 -32 50 -188
310 -211 352 -6 11 -23 39 -38 62 -15 24 -27 45 -27 47 0 3 -12 22 -26 43 -14
21 -30 47 -35 58 -5 11 -18 34 -29 50 -11 17 -27 44 -36 60 -9 17 -68 114
-130 218 -63 103 -114 189 -114 192 0 2 -12 23 -27 47 -31 48 -38 60 -85 138
-17 30 -39 66 -48 80 -79 131 -125 209 -183 308 -47 82 -52 91 -87 147 -14 22
-34 57 -45 78 -11 20 -23 37 -27 37 -5 0 -8 4 -8 10 0 7 -151 266 -210 360
-27 44 -96 158 -108 180 -7 14 -21 37 -30 52 -9 14 -57 95 -107 178 -94 159
-103 173 -174 291 -24 40 -49 82 -55 93 -6 12 -23 39 -37 61 -14 22 -34 56
-45 75 -83 152 -235 276 -405 330 -73 23 -254 35 -331 20z"/>
</g>
</svg>
